<svg xmlns="http://www.w3.org/2000/svg" 
  viewBox="0 0 20 20" 
  stroke-width="1" 
  stroke="#000000" 
  stroke-linecap="round" 
  stroke-linejoin="round"
  fill="transparent">
    <path d="
    M 8 8 v 3 
    M 10 8 h 2 v 3 h -2 z 
    M 8 13 h 2 v 3 h -2 z 
    M 12 13 v 3 
    M 7 6 h 6 l 1 1 v 10 l -3 2 l -1 -1 l -1 1 l -3 -2 v -10 z 
    M 6 12 h -5 
    M 14 12 h 5 
    M 6 15 h -2 v 2 l -2 2 
    M 14 15 h 2 v 2 l 2 2 
    M 6 9 h -2 v -2 l -2 -2 
    M 14 9 h 2 v -2 l 2 -2 
    M 8 6 v -2 l 1 -1 h 2 l 1 1 v 2 
    M 9 3 l -2 -2 
    M 11 3 l 2 -2
  "/>
</svg>
