<svg xmlns="http://www.w3.org/2000/svg"
  viewBox="0 0 17 17"
  stroke-width="1"
  stroke="#FF0000"
  stroke-linecap="round"
  stroke-linejoin="round"
  fill="transparent">
    <path d="
    M 6 7 v 2
    M 8 7 h 2 v 2 h -2 z
    M 6 11 h 2 v 2 h -2 z
    M 10 11 v 2
    M 5 5 h 6 l 1 1 v 8 l -3 2 l -1 -1 l -1 1 l -3 -2 v -8 z
    M 4 10 h -3
    M 12 10 h 3
    M 4 13 h -2 v 1 l -1 1
    M 12 13 h 2 v 1 l 1 1
    M 4 7 h -2 v -1 l -1 -1
    M 12 7 h 2 v -1 l 1 -1
    M 6 5 v -2 h 4 v 2
    M 7 3 v -1 l -1 -1
    M 9 3 v -1 l 1 -1
  "/>
</svg>
