<svg xmlns="http://www.w3.org/2000/svg"
  viewBox="0 0 17 17"
  stroke-width="1"
  stroke="#FF0000"
  stroke-linecap="round"
  stroke-linejoin="round"
  fill="transparent">
    <path d="
    M 6 6 v 3
    M 8 6 h 3 v 3 h -3 z
    M 6 11 h 3 v 3 h -3 z
    M 11 11 v 3

    M 5 4 h 7 l 1 1 v 10 l -1 1 h -7 l -1 -1 v -10 l 1 -1 z

    M 4 10 h -3
    M 13 10 h 3

    M 4 13 h -2 v 1 l -1 1 v 1
    M 13 13 h 2 v 1 l 1 1 v 1

    M 4 7 h -2 v -1 l -1 -1 v -1
    M 13 7 h 2 v -1 l 1 -1 v -1

    M 6 4 v -2 l 1 -1 h 3 l 1 1 v 2

    M 6 2 l -3 -1
    M 11 2 l 3 -1
  "/>
</svg>
