<svg xmlns="http://www.w3.org/2000/svg"
  viewBox="0 0 17 17"
  stroke-width="1"
  stroke="#FF0000"
  stroke-linecap="round"
  stroke-linejoin="round"
  fill="none">
    <path d="
    M 6 6 v 3
    M 8 6 h 3 v 3 h -3 z
    M 6 11 h 3 v 3 h -3 z
    M 11 11 v 3

    M 6 4
    h 5 c 2 0 2 2 2 2 
    v 8 c 0 2 -2 2 -2 2 
    h -5 c -2 0 -2 -2 -2 -2
    v -8 c 0 -2 2 -2 2 -2 z

    M 4 12 c -1 0 -3 0 -3 4
    M 13 12 c 1 0 3 0 3 4

    M 4 8 c -1 0 -3 0 -3 -4
    M 13 8 c 1 0 3 0 3 -4

    M 6 4
    v -1 c 0 -2 2 -2 2 -2 
    h 1 c 2 0 2 2 2 2
    v 1

    M 6 2 l -4 -1
    M 11 2 l 4 -1
  "/>
</svg>
